<?xml version="1.0" standalone="no"?>
<!DOCTYPE svg PUBLIC "-//W3C//DTD SVG 20010904//EN"
 "http://www.w3.org/TR/2001/REC-SVG-20010904/DTD/svg10.dtd">
<svg version="1.0" xmlns="http://www.w3.org/2000/svg"
 width="245.000000pt" height="245.000000pt" viewBox="0 0 245.000000 245.000000"
 preserveAspectRatio="xMidYMid meet">
<metadata>
Created by potrace 1.11, written by Peter Selinger 2001-2013
</metadata>
<g transform="translate(0.000000,245.000000) scale(0.100000,-0.100000)"
fill="#000000" stroke="none">
<path d="M770 2438 c0 -7 25 -55 54 -105 30 -51 51 -93 47 -93 -20 0 -143
-100 -188 -153 -86 -102 -143 -240 -143 -349 l0 -48 675 0 675 0 0 33 c0 63
-22 152 -56 226 -18 40 -31 77 -28 82 3 5 1 8 -4 7 -5 -2 -31 21 -58 51 -27
30 -70 71 -96 92 -26 20 -44 40 -40 44 4 5 1 5 -5 1 -7 -4 -21 -1 -31 6 -18
12 -16 18 34 103 29 50 53 96 53 103 1 7 -11 12 -28 12 -26 0 -34 -8 -62 -59
-18 -33 -38 -57 -43 -54 -6 4 -8 3 -4 -2 4 -4 0 -21 -8 -37 -11 -22 -20 -28
-32 -22 -9 3 -51 15 -92 25 -112 28 -264 26 -371 -5 -46 -13 -86 -23 -90 -20
-3 2 -28 42 -54 89 -43 76 -51 85 -76 85 -17 0 -29 -5 -29 -12z m656 -183
c109 -37 168 -70 241 -138 110 -103 183 -242 183 -348 l0 -39 -639 0 -640 0 5
38 c19 136 79 248 188 350 62 57 77 67 99 63 5 -1 6 3 3 7 -10 17 158 82 249
96 77 12 233 -3 311 -29z"/>
<path d="M863 2058 c-47 -23 -53 -103 -10 -133 80 -56 172 55 101 120 -29 27
-55 30 -91 13z m77 -48 c21 -38 -22 -80 -61 -60 -19 10 -27 59 -12 73 15 15
63 7 73 -13z"/>
<path d="M1476 2049 c-56 -44 -20 -140 53 -139 30 1 53 16 69 47 18 34 14 52
-17 84 -35 34 -68 37 -105 8z m84 -33 c34 -42 -20 -91 -62 -57 -20 16 -21 22
-10 45 13 29 52 36 72 12z"/>
<path d="M256 1651 c-15 -11 -37 -32 -47 -48 -18 -26 -19 -53 -19 -403 0 -403
0 -400 52 -438 10 -7 16 -17 14 -21 -3 -4 25 -7 62 -7 82 2 124 27 153 90 17
37 19 71 19 379 0 314 -1 340 -19 376 -11 20 -27 43 -35 50 -9 7 -14 16 -12
20 5 8 -5 10 -84 16 -42 3 -62 0 -84 -14z m144 -40 c53 -38 55 -51 58 -396 2
-276 1 -326 -13 -362 -22 -57 -57 -83 -109 -83 -50 1 -81 17 -107 56 -18 27
-19 50 -19 372 0 383 0 386 68 422 42 23 83 20 122 -9z"/>
<path d="M2023 1650 c-18 -10 -44 -37 -58 -58 l-26 -39 3 -360 3 -360 29 -37
c70 -92 187 -86 253 13 23 34 23 36 23 389 0 342 -1 356 -21 392 -41 72 -139
101 -206 60z m126 -28 c69 -37 71 -47 71 -420 0 -361 -1 -368 -56 -411 -18
-14 -41 -21 -71 -21 -60 0 -108 45 -118 111 -3 24 -5 184 -3 354 3 344 3 344
71 385 40 25 63 25 106 2z"/>
<path d="M530 1138 c0 -493 1 -513 20 -552 32 -65 61 -80 162 -84 l87 -4 3
-192 c3 -186 4 -194 28 -228 51 -75 140 -94 213 -44 19 13 37 22 40 20 2 -2 4
2 5 8 0 7 7 31 16 53 11 30 15 83 16 213 l0 172 95 0 95 0 0 -177 c0 -193 9
-232 61 -280 53 -47 166 -45 205 4 50 63 54 84 54 273 l0 180 79 0 c88 0 127
18 168 79 l23 34 -2 516 -3 516 -682 3 -683 2 0 -512z m1330 -23 l0 -504 -31
-35 -30 -35 -100 -3 -100 -3 0 -175 c0 -96 -4 -193 -9 -214 -13 -56 -57 -97
-113 -103 -41 -5 -48 -2 -83 30 l-39 35 -3 216 -3 217 -132 -3 -132 -3 -5
-207 c-5 -190 -7 -209 -26 -235 -45 -61 -122 -68 -175 -17 -42 40 -49 79 -49
282 l0 182 -99 0 c-98 0 -100 1 -130 31 l-31 31 0 509 0 509 645 0 645 0 0
-505z"/>
</g>
</svg>
